<svg xmlns="http://www.w3.org/2000/svg"><symbol id="mecha-stilts" viewBox="0 0 256 256"><path d="M123.8 82.1l-33.4 46.7H67.9c6.5-25.5 29-45 55.9-46.7zm2.1 4.2v42.5H95.6l30.3-42.5zm-56.6 62.5h56.5v23.33H69.3zm60.8 0h9.5v23.33h-9.5zm13.7 0h42.9v23.33h-42.9zm44.3-20h-58V81.9a62.5 62.5 0 0 1 58 46.9zM57.4 133h141.3v11.56H57.4z"/><path d="M128 1L17.2 65v128L128 257l110.8-64V65zm90.6 147.8h-27.8v25.4a2 2 0 0 1-2.1 2.1H67.2a2 2 0 0 1-2.1-2.1v-25.4H37.4a2.1 2.1 0 0 1 0-4.2h15.8v-13.7a2 2 0 0 1 2.1-2.1h8.2a66.6 66.6 0 0 1 64.3-51.1c.2-.2.4-.2.8 0 31.1.2 57 22.1 63.9 51.1h8.2a2 2 0 0 1 2.1 2.1v13.7h15.8a2.1 2.1 0 1 1 0 4.2z"/></symbol><symbol id="super-domes" viewBox="0 0 256 256"><path d="M80.2 158.6h13.5v13.24H80.2zm17.6 0h21v13.24h-21zm25.2 0h13.5v13.24H123zm17.7 0h21v13.24h-21zM176 113H83.5c1-27.1 21.7-42 46.2-42S175 85.9 176 113zm-10.1 45.6h13.5v13.24h-13.5zm-98.4-41.4v37.2H192v-37.2zM180 144.3h-51.3a2.1 2.1 0 0 1 0-4.2H180a2.1 2.1 0 1 1 0 4.2z"/><path d="M129.8.8l-110.9 64v128l110.9 64 110.8-64v-128zm66.4 155.8a2 2 0 0 1-2.1 2.1h-10.5v13.2h10.5a2.1 2.1 0 0 1 0 4.2H65.4a2.1 2.1 0 0 1 0-4.2H76v-13.3H65.4a2 2 0 0 1-2.1-2.1v-41.4a2 2 0 0 1 2.1-2.1h13.9c1-29.8 23.3-46.3 50.5-46.3s49.4 16.4 50.4 46.3h13.9a2 2 0 0 1 2.1 2.1z"/></symbol><symbol id="space-bubbles" viewBox="0 0 256 256"><path d="M103.9 157.2l-35.6 18.7-2.9-4.2 18.5-21.8h13.9l6.1 7.3zm2.9 3.4l8.6 10.5H86.8l20-10.5zm46.9-10.7L136 171.1h-15.1l-17.7-21.2h50.5zm-3.6 10.7l20 10.5h-28.6l8.6-10.5zm-63.5-30.1c-2.1-4.8-2.5-10.5-2.5-16a45.5 45.5 0 0 1 91 0 50.9 50.9 0 0 1-2.5 16zm-14.5 4.2h115v10.93h-115zM173 149.9l18.5 22-2.9 4-35.8-18.7 6.4-7.3H173z"/><path d="M128.5 0L17.6 64v128l110.9 64 110.9-64V64zm67.3 173l-4.8 6.9a2.2 2.2 0 0 1-2.7.6l-10.1-5.2H78.6l-10.1 5.3a2.3 2.3 0 0 1-2.7-.6l-4.8-7a2.2 2.2 0 0 1 .2-2.5l17.5-20.6H70a2 2 0 0 1-2.1-2.1v-15.2a2 2 0 0 1 2.1-2.1h12.2a58.8 58.8 0 0 1-2.3-16 49.7 49.7 0 0 1 99.4 0 51.7 51.7 0 0 1-2.3 16h12.2a2 2 0 0 1 2.1 2.1v15.1a2 2 0 0 1-2.1 2.1h-10.7l17.2 20.6a2.2 2.2 0 0 1 0 2.6z"/></symbol></svg>